<mxfile host="app.diagrams.net" modified="2023-02-08T03:01:49.028Z" agent="5.0 (Windows NT 10.0; Win64; x64) AppleWebKit/537.36 (KHTML, like Gecko) Chrome/109.0.0.0 Safari/537.36" etag="xVs_Eaj8u9cRu7qMV1GM" version="20.8.15" type="github">
  <diagram id="53IQXVl9icCSp_Kw3Ib1" name="Page-1">
    <mxGraphModel dx="1186" dy="732" grid="1" gridSize="10" guides="1" tooltips="1" connect="1" arrows="1" fold="1" page="1" pageScale="1" pageWidth="1100" pageHeight="850" math="0" shadow="0">
      <root>
        <mxCell id="0" />
        <mxCell id="1" parent="0" />
        <mxCell id="fSnZ5vnYTslC5NarKmr_-11" value="PAP365 branching strategy" style="text;html=1;strokeColor=none;fillColor=none;align=center;verticalAlign=middle;whiteSpace=wrap;rounded=0;fontSize=33;fontColor=#000000;" parent="1" vertex="1">
          <mxGeometry x="155" y="40" width="790" height="40" as="geometry" />
        </mxCell>
        <mxCell id="9hBKPDzoitwpIBdzFDQ7-28" value="features/B" style="text;html=1;strokeColor=none;fillColor=none;align=center;verticalAlign=middle;whiteSpace=wrap;overflow=hidden;fontSize=14;fontStyle=1;fontFamily=Courier New;" parent="1" vertex="1">
          <mxGeometry x="27.19" y="646" width="92" height="20" as="geometry" />
        </mxCell>
        <mxCell id="9hBKPDzoitwpIBdzFDQ7-37" value="DEV personal env" style="text;html=1;strokeColor=none;fillColor=none;align=center;verticalAlign=middle;whiteSpace=wrap;overflow=hidden;fontSize=14;fontStyle=0;fontColor=#009900;" parent="1" vertex="1">
          <mxGeometry x="34.57" y="666" width="67.25" height="60" as="geometry" />
        </mxCell>
        <mxCell id="ck4O1efFFyVbqovqOwfO-1" value="" style="edgeStyle=orthogonalEdgeStyle;rounded=0;html=1;jettySize=auto;orthogonalLoop=1;strokeWidth=4;endArrow=none;endFill=0;startArrow=none;" parent="1" source="ck4O1efFFyVbqovqOwfO-7" edge="1">
          <mxGeometry x="154.5" y="200" as="geometry">
            <mxPoint x="110" y="200" as="sourcePoint" />
            <mxPoint x="224.5" y="200" as="targetPoint" />
          </mxGeometry>
        </mxCell>
        <mxCell id="ck4O1efFFyVbqovqOwfO-2" value="main" style="text;html=1;strokeColor=none;fillColor=none;align=center;verticalAlign=middle;whiteSpace=wrap;overflow=hidden;fontSize=14;fontStyle=1;fontFamily=Courier New;" parent="1" vertex="1">
          <mxGeometry x="38" y="190" width="50" height="20" as="geometry" />
        </mxCell>
        <mxCell id="ck4O1efFFyVbqovqOwfO-4" value="Released to QA and PROD" style="text;html=1;strokeColor=none;fillColor=none;align=left;verticalAlign=middle;whiteSpace=wrap;overflow=hidden;fontSize=14;fontStyle=0;fontColor=#009900;" parent="1" vertex="1">
          <mxGeometry x="19.57" y="210" width="97.25" height="39" as="geometry" />
        </mxCell>
        <mxCell id="ck4O1efFFyVbqovqOwfO-8" value="" style="edgeStyle=orthogonalEdgeStyle;curved=1;rounded=0;orthogonalLoop=1;jettySize=auto;html=1;endArrow=none;endFill=0;strokeWidth=4;fontFamily=Courier New;fontSize=16;exitX=1;exitY=0.5;exitDx=0;exitDy=0;exitPerimeter=0;" parent="1" source="ck4O1efFFyVbqovqOwfO-34" target="ck4O1efFFyVbqovqOwfO-12" edge="1">
          <mxGeometry relative="1" as="geometry">
            <mxPoint x="467" y="199" as="sourcePoint" />
          </mxGeometry>
        </mxCell>
        <mxCell id="ck4O1efFFyVbqovqOwfO-10" value="" style="edgeStyle=orthogonalEdgeStyle;curved=1;rounded=0;orthogonalLoop=1;jettySize=auto;html=1;endArrow=none;endFill=0;strokeWidth=4;fontFamily=Courier New;fontSize=16;startArrow=none;" parent="1" source="ck4O1efFFyVbqovqOwfO-15" edge="1">
          <mxGeometry relative="1" as="geometry">
            <mxPoint x="707" y="199" as="targetPoint" />
          </mxGeometry>
        </mxCell>
        <mxCell id="ck4O1efFFyVbqovqOwfO-11" value="" style="edgeStyle=orthogonalEdgeStyle;curved=1;rounded=0;orthogonalLoop=1;jettySize=auto;html=1;endArrow=none;endFill=0;strokeWidth=4;fontFamily=Courier New;fontSize=16;exitX=1;exitY=0.5;exitDx=0;exitDy=0;exitPerimeter=0;entryX=0;entryY=0.5;entryDx=0;entryDy=0;entryPerimeter=0;" parent="1" source="17730NkYTiJZY0oufSv_-13" target="9hBKPDzoitwpIBdzFDQ7-30" edge="1">
          <mxGeometry relative="1" as="geometry">
            <mxPoint x="391.13" y="555" as="targetPoint" />
            <mxPoint x="319.5" y="506" as="sourcePoint" />
            <Array as="points">
              <mxPoint x="360" y="481" />
              <mxPoint x="360" y="570" />
            </Array>
          </mxGeometry>
        </mxCell>
        <mxCell id="ck4O1efFFyVbqovqOwfO-12" value="" style="verticalLabelPosition=bottom;verticalAlign=top;html=1;strokeWidth=4;shape=mxgraph.flowchart.on-page_reference;strokeColor=#36393d;fillColor=#cce5ff;" parent="1" vertex="1">
          <mxGeometry x="482" y="184" width="30" height="30" as="geometry" />
        </mxCell>
        <mxCell id="ck4O1efFFyVbqovqOwfO-13" value="" style="edgeStyle=orthogonalEdgeStyle;curved=1;rounded=0;orthogonalLoop=1;jettySize=auto;html=1;endArrow=none;endFill=0;strokeWidth=4;fontFamily=Courier New;fontSize=16;startArrow=none;" parent="1" source="17730NkYTiJZY0oufSv_-48" target="ck4O1efFFyVbqovqOwfO-15" edge="1">
          <mxGeometry relative="1" as="geometry">
            <mxPoint x="1080" y="200" as="sourcePoint" />
          </mxGeometry>
        </mxCell>
        <mxCell id="ck4O1efFFyVbqovqOwfO-22" value="22.1" style="text;html=1;strokeColor=none;fillColor=none;align=center;verticalAlign=middle;whiteSpace=wrap;overflow=hidden;fontSize=14;" parent="1" vertex="1">
          <mxGeometry x="145.5" y="161" width="91" height="20" as="geometry" />
        </mxCell>
        <mxCell id="ck4O1efFFyVbqovqOwfO-24" value="" style="edgeStyle=orthogonalEdgeStyle;curved=1;rounded=0;orthogonalLoop=1;jettySize=auto;html=1;endArrow=none;endFill=0;strokeWidth=4;fontFamily=Courier New;fontSize=16;entryX=0;entryY=0.5;entryDx=0;entryDy=0;entryPerimeter=0;" parent="1" source="ck4O1efFFyVbqovqOwfO-25" target="ck4O1efFFyVbqovqOwfO-15" edge="1">
          <mxGeometry relative="1" as="geometry">
            <mxPoint x="745.8699999999999" y="279" as="targetPoint" />
            <Array as="points">
              <mxPoint x="585" y="290" />
              <mxPoint x="585" y="199" />
            </Array>
          </mxGeometry>
        </mxCell>
        <mxCell id="ck4O1efFFyVbqovqOwfO-27" value="22.1.2" style="text;html=1;strokeColor=none;fillColor=none;align=center;verticalAlign=middle;whiteSpace=wrap;overflow=hidden;fontSize=14;" parent="1" vertex="1">
          <mxGeometry x="629.37" y="161" width="52.63" height="20" as="geometry" />
        </mxCell>
        <mxCell id="_r8tFfjNaQo8byVIqAFJ-19" value="" style="edgeStyle=orthogonalEdgeStyle;curved=1;rounded=0;orthogonalLoop=1;jettySize=auto;html=1;endArrow=none;endFill=0;strokeWidth=4;fontFamily=Courier New;fontSize=16;" parent="1" source="ck4O1efFFyVbqovqOwfO-12" target="ck4O1efFFyVbqovqOwfO-15" edge="1">
          <mxGeometry relative="1" as="geometry">
            <mxPoint x="547" y="199" as="sourcePoint" />
            <mxPoint x="707" y="199" as="targetPoint" />
          </mxGeometry>
        </mxCell>
        <mxCell id="ck4O1efFFyVbqovqOwfO-15" value="" style="verticalLabelPosition=bottom;verticalAlign=top;html=1;strokeWidth=4;shape=mxgraph.flowchart.on-page_reference;strokeColor=#36393d;fillColor=#cce5ff;" parent="1" vertex="1">
          <mxGeometry x="600.3699999999999" y="184" width="30" height="30" as="geometry" />
        </mxCell>
        <mxCell id="_r8tFfjNaQo8byVIqAFJ-22" value="22.1.1" style="text;html=1;strokeColor=none;fillColor=none;align=center;verticalAlign=middle;whiteSpace=wrap;overflow=hidden;fontSize=14;" parent="1" vertex="1">
          <mxGeometry x="362" y="161" width="60.5" height="20" as="geometry" />
        </mxCell>
        <mxCell id="_r8tFfjNaQo8byVIqAFJ-40" value="" style="edgeStyle=orthogonalEdgeStyle;curved=1;rounded=0;orthogonalLoop=1;jettySize=auto;html=1;endArrow=none;endFill=0;strokeWidth=4;fontFamily=Courier New;fontSize=16;startArrow=none;exitX=1;exitY=0.667;exitDx=0;exitDy=0;exitPerimeter=0;" parent="1" edge="1">
          <mxGeometry relative="1" as="geometry">
            <mxPoint x="340" y="200" as="targetPoint" />
            <mxPoint x="278" y="294.01" as="sourcePoint" />
            <Array as="points">
              <mxPoint x="278" y="290" />
              <mxPoint x="310" y="290" />
              <mxPoint x="310" y="200" />
            </Array>
          </mxGeometry>
        </mxCell>
        <mxCell id="pDLgfkYLmZ7nKOtSb_zo-12" value="hotfix" style="text;html=1;strokeColor=none;fillColor=none;align=left;verticalAlign=middle;whiteSpace=wrap;overflow=hidden;fontSize=14;fontStyle=1;fontFamily=Courier New;" parent="1" vertex="1">
          <mxGeometry x="32.19" y="280" width="73.62" height="20" as="geometry" />
        </mxCell>
        <mxCell id="YvMvGw8tSOt4RGlKbDvN-7" value="" style="edgeStyle=orthogonalEdgeStyle;rounded=0;html=1;jettySize=auto;orthogonalLoop=1;plain-blue;endArrow=none;endFill=0;strokeWidth=4;strokeColor=#000000;startArrow=none;" parent="1" edge="1">
          <mxGeometry x="-229.88" y="480" as="geometry">
            <mxPoint x="824" y="480" as="targetPoint" />
            <mxPoint x="274" y="480" as="sourcePoint" />
          </mxGeometry>
        </mxCell>
        <mxCell id="YvMvGw8tSOt4RGlKbDvN-8" value="features/A" style="text;html=1;strokeColor=none;fillColor=none;align=center;verticalAlign=middle;whiteSpace=wrap;overflow=hidden;fontSize=14;fontStyle=1;fontFamily=Courier New;" parent="1" vertex="1">
          <mxGeometry x="21" y="550" width="93" height="21" as="geometry" />
        </mxCell>
        <mxCell id="YvMvGw8tSOt4RGlKbDvN-10" value="TEST env" style="text;html=1;strokeColor=none;fillColor=none;align=left;verticalAlign=middle;whiteSpace=wrap;overflow=hidden;fontSize=14;fontStyle=0;fontColor=#009900;" parent="1" vertex="1">
          <mxGeometry x="32.19" y="380" width="72" height="25" as="geometry" />
        </mxCell>
        <mxCell id="ck4O1efFFyVbqovqOwfO-34" value="" style="verticalLabelPosition=bottom;verticalAlign=top;html=1;strokeWidth=4;shape=mxgraph.flowchart.on-page_reference;fillColor=#b5e3fe;strokeColor=#000000;labelBorderColor=none;" parent="1" vertex="1">
          <mxGeometry x="332" y="185" width="30" height="30" as="geometry" />
        </mxCell>
        <mxCell id="YvMvGw8tSOt4RGlKbDvN-45" style="edgeStyle=orthogonalEdgeStyle;curved=1;rounded=0;html=1;endArrow=none;endFill=0;jettySize=auto;orthogonalLoop=1;strokeWidth=4;fontSize=15;" parent="1" edge="1">
          <mxGeometry relative="1" as="geometry">
            <mxPoint x="709" y="380" as="targetPoint" />
            <Array as="points">
              <mxPoint x="689" y="480" />
              <mxPoint x="689" y="380" />
            </Array>
            <mxPoint x="668" y="480" as="sourcePoint" />
          </mxGeometry>
        </mxCell>
        <mxCell id="kWK_K31KorMhjqKaLNin-1" value="" style="edgeStyle=orthogonalEdgeStyle;rounded=0;html=1;jettySize=auto;orthogonalLoop=1;strokeWidth=4;endArrow=none;endFill=0;" parent="1" target="ck4O1efFFyVbqovqOwfO-7" edge="1">
          <mxGeometry x="154.5" y="200" as="geometry">
            <mxPoint x="110" y="200" as="sourcePoint" />
            <mxPoint x="224.5" y="200" as="targetPoint" />
          </mxGeometry>
        </mxCell>
        <mxCell id="ck4O1efFFyVbqovqOwfO-7" value="" style="verticalLabelPosition=bottom;verticalAlign=top;html=1;strokeWidth=4;shape=mxgraph.flowchart.on-page_reference;plain-blue;gradientColor=none;fillColor=#B5E3Fe;strokeColor=#000000;" parent="1" vertex="1">
          <mxGeometry x="145.5" y="185" width="30" height="30" as="geometry" />
        </mxCell>
        <mxCell id="kWK_K31KorMhjqKaLNin-9" value="" style="edgeStyle=orthogonalEdgeStyle;rounded=0;html=1;jettySize=auto;orthogonalLoop=1;plain-blue;endArrow=none;endFill=0;strokeWidth=4;strokeColor=#000000;startArrow=none;entryX=0;entryY=0.5;entryDx=0;entryDy=0;entryPerimeter=0;" parent="1" target="ck4O1efFFyVbqovqOwfO-34" edge="1">
          <mxGeometry x="67.74000000000001" y="199.5" as="geometry">
            <mxPoint x="319.5" y="199.5" as="targetPoint" />
            <mxPoint x="220" y="200" as="sourcePoint" />
            <Array as="points">
              <mxPoint x="270" y="200" />
            </Array>
          </mxGeometry>
        </mxCell>
        <mxCell id="kWK_K31KorMhjqKaLNin-10" style="edgeStyle=orthogonalEdgeStyle;curved=1;rounded=0;html=1;endArrow=none;endFill=0;jettySize=auto;orthogonalLoop=1;strokeWidth=4;fontSize=15;" parent="1" edge="1">
          <mxGeometry relative="1" as="geometry">
            <mxPoint x="300.5" y="291" as="targetPoint" />
            <Array as="points">
              <mxPoint x="430" y="480" />
              <mxPoint x="370" y="480" />
              <mxPoint x="370" y="291" />
            </Array>
            <mxPoint x="420" y="480" as="sourcePoint" />
          </mxGeometry>
        </mxCell>
        <mxCell id="17730NkYTiJZY0oufSv_-2" value="" style="edgeStyle=orthogonalEdgeStyle;curved=1;rounded=0;orthogonalLoop=1;jettySize=auto;html=1;endArrow=none;endFill=0;strokeWidth=4;fontFamily=Courier New;fontSize=16;startArrow=none;entryX=0;entryY=0.5;entryDx=0;entryDy=0;entryPerimeter=0;" parent="1" edge="1">
          <mxGeometry relative="1" as="geometry">
            <mxPoint x="251" y="285" as="targetPoint" />
            <mxPoint x="184.25" y="200" as="sourcePoint" />
            <Array as="points">
              <mxPoint x="210" y="200" />
              <mxPoint x="210" y="290" />
              <mxPoint x="254" y="290" />
              <mxPoint x="254" y="285" />
            </Array>
          </mxGeometry>
        </mxCell>
        <mxCell id="17730NkYTiJZY0oufSv_-4" value="" style="edgeStyle=orthogonalEdgeStyle;rounded=0;html=1;jettySize=auto;orthogonalLoop=1;plain-blue;endArrow=none;endFill=0;strokeWidth=2;strokeColor=#000000;startArrow=none;dashed=1;" parent="1" edge="1">
          <mxGeometry x="-79.38" y="291" as="geometry">
            <mxPoint x="248" y="291" as="targetPoint" />
            <mxPoint x="110" y="291" as="sourcePoint" />
            <Array as="points">
              <mxPoint x="240" y="291" />
              <mxPoint x="240" y="291" />
            </Array>
          </mxGeometry>
        </mxCell>
        <mxCell id="17730NkYTiJZY0oufSv_-5" value="" style="edgeStyle=orthogonalEdgeStyle;rounded=0;html=1;jettySize=auto;orthogonalLoop=1;plain-blue;endArrow=none;endFill=0;strokeWidth=2;strokeColor=#000000;startArrow=none;dashed=1;" parent="1" target="_r8tFfjNaQo8byVIqAFJ-6" edge="1">
          <mxGeometry x="-79.38" y="288" as="geometry">
            <mxPoint x="1080" y="288" as="targetPoint" />
            <mxPoint x="256.1199999999999" y="291" as="sourcePoint" />
            <Array as="points" />
          </mxGeometry>
        </mxCell>
        <mxCell id="_r8tFfjNaQo8byVIqAFJ-6" value="" style="verticalLabelPosition=bottom;verticalAlign=top;html=1;strokeWidth=4;shape=mxgraph.flowchart.on-page_reference;plain-blue;gradientColor=#EA6B66;strokeColor=#B85450;fillColor=#F8CECC;" parent="1" vertex="1">
          <mxGeometry x="247.9999999999999" y="272" width="30" height="30" as="geometry" />
        </mxCell>
        <mxCell id="17730NkYTiJZY0oufSv_-6" style="edgeStyle=orthogonalEdgeStyle;curved=1;rounded=0;html=1;entryX=0;entryY=0.5;entryPerimeter=0;endArrow=none;endFill=0;jettySize=auto;orthogonalLoop=1;strokeWidth=4;fontSize=15;entryDx=0;entryDy=0;" parent="1" edge="1">
          <mxGeometry relative="1" as="geometry">
            <mxPoint x="190" y="201" as="targetPoint" />
            <Array as="points">
              <mxPoint x="214.5" y="481" />
              <mxPoint x="214.5" y="201" />
            </Array>
            <mxPoint x="258.5" y="481" as="sourcePoint" />
          </mxGeometry>
        </mxCell>
        <mxCell id="17730NkYTiJZY0oufSv_-8" value="" style="edgeStyle=orthogonalEdgeStyle;rounded=0;html=1;jettySize=auto;orthogonalLoop=1;plain-blue;endArrow=none;endFill=0;strokeWidth=2;strokeColor=#000000;startArrow=none;dashed=1;" parent="1" edge="1">
          <mxGeometry x="-108.19" y="376" as="geometry">
            <mxPoint x="1089.19" y="379" as="targetPoint" />
            <mxPoint x="750" y="380" as="sourcePoint" />
            <Array as="points">
              <mxPoint x="1051.19" y="379" />
            </Array>
          </mxGeometry>
        </mxCell>
        <mxCell id="17730NkYTiJZY0oufSv_-10" value="" style="edgeStyle=orthogonalEdgeStyle;rounded=0;html=1;jettySize=auto;orthogonalLoop=1;plain-blue;endArrow=none;endFill=0;strokeWidth=2;strokeColor=#000000;startArrow=none;dashed=1;exitX=1;exitY=0.5;exitDx=0;exitDy=0;exitPerimeter=0;" parent="1" source="17730NkYTiJZY0oufSv_-64" edge="1">
          <mxGeometry x="-104.38" y="476.5" as="geometry">
            <mxPoint x="1085" y="479.5" as="targetPoint" />
            <mxPoint x="790" y="479.5" as="sourcePoint" />
            <Array as="points">
              <mxPoint x="890" y="480" />
              <mxPoint x="1055" y="480" />
            </Array>
          </mxGeometry>
        </mxCell>
        <mxCell id="17730NkYTiJZY0oufSv_-15" value="" style="edgeStyle=orthogonalEdgeStyle;rounded=0;html=1;jettySize=auto;orthogonalLoop=1;plain-blue;endArrow=none;endFill=0;strokeWidth=2;strokeColor=#000000;startArrow=none;dashed=1;" parent="1" source="17730NkYTiJZY0oufSv_-11" target="17730NkYTiJZY0oufSv_-13" edge="1">
          <mxGeometry x="-109.38" y="466" as="geometry">
            <mxPoint x="1050" y="466" as="targetPoint" />
            <mxPoint x="281" y="469" as="sourcePoint" />
            <Array as="points" />
          </mxGeometry>
        </mxCell>
        <mxCell id="17730NkYTiJZY0oufSv_-16" value="" style="edgeStyle=orthogonalEdgeStyle;rounded=0;html=1;jettySize=auto;orthogonalLoop=1;plain-blue;endArrow=none;endFill=0;strokeWidth=2;strokeColor=#000000;startArrow=none;dashed=1;" parent="1" edge="1">
          <mxGeometry x="-79.38" y="287" as="geometry">
            <mxPoint x="1080" y="289" as="targetPoint" />
            <mxPoint x="278" y="289" as="sourcePoint" />
            <Array as="points">
              <mxPoint x="440" y="289" />
              <mxPoint x="440" y="289" />
            </Array>
          </mxGeometry>
        </mxCell>
        <mxCell id="17730NkYTiJZY0oufSv_-18" value="release" style="text;html=1;strokeColor=none;fillColor=none;align=left;verticalAlign=middle;whiteSpace=wrap;overflow=hidden;fontSize=14;fontStyle=1;fontFamily=Courier New;" parent="1" vertex="1">
          <mxGeometry x="30.569999999999997" y="360" width="73.62" height="20" as="geometry" />
        </mxCell>
        <mxCell id="17730NkYTiJZY0oufSv_-19" value="dev" style="text;html=1;strokeColor=none;fillColor=none;align=left;verticalAlign=middle;whiteSpace=wrap;overflow=hidden;fontSize=14;fontStyle=1;fontFamily=Courier New;" parent="1" vertex="1">
          <mxGeometry x="44.099999999999994" y="461" width="37.81" height="20" as="geometry" />
        </mxCell>
        <mxCell id="17730NkYTiJZY0oufSv_-20" value="DEV env" style="text;html=1;strokeColor=none;fillColor=none;align=left;verticalAlign=middle;whiteSpace=wrap;overflow=hidden;fontSize=14;fontStyle=0;fontColor=#009900;" parent="1" vertex="1">
          <mxGeometry x="37.19" y="481" width="72" height="20" as="geometry" />
        </mxCell>
        <mxCell id="17730NkYTiJZY0oufSv_-25" value="" style="edgeStyle=orthogonalEdgeStyle;rounded=0;html=1;jettySize=auto;orthogonalLoop=1;plain-blue;endArrow=none;endFill=0;strokeWidth=2;strokeColor=#000000;startArrow=none;dashed=1;" parent="1" target="17730NkYTiJZY0oufSv_-23" edge="1">
          <mxGeometry x="-109.38" y="475" as="geometry">
            <mxPoint x="1080" y="478" as="targetPoint" />
            <mxPoint x="100" y="480" as="sourcePoint" />
            <Array as="points" />
          </mxGeometry>
        </mxCell>
        <mxCell id="17730NkYTiJZY0oufSv_-23" value="" style="verticalLabelPosition=bottom;verticalAlign=top;html=1;strokeWidth=4;shape=mxgraph.flowchart.on-page_reference;fillColor=#e1d5e7;strokeColor=#9673a6;" parent="1" vertex="1">
          <mxGeometry x="400" y="465" width="30" height="30" as="geometry" />
        </mxCell>
        <mxCell id="17730NkYTiJZY0oufSv_-11" value="" style="verticalLabelPosition=bottom;verticalAlign=top;html=1;strokeWidth=4;shape=mxgraph.flowchart.on-page_reference;fillColor=#e1d5e7;strokeColor=#9673a6;" parent="1" vertex="1">
          <mxGeometry x="246" y="465" width="30" height="30" as="geometry" />
        </mxCell>
        <mxCell id="17730NkYTiJZY0oufSv_-13" value="" style="verticalLabelPosition=bottom;verticalAlign=top;html=1;strokeWidth=4;shape=mxgraph.flowchart.on-page_reference;fillColor=#e1d5e7;strokeColor=#9673a6;" parent="1" vertex="1">
          <mxGeometry x="302" y="466" width="30" height="30" as="geometry" />
        </mxCell>
        <mxCell id="17730NkYTiJZY0oufSv_-26" value="" style="edgeStyle=orthogonalEdgeStyle;rounded=0;html=1;jettySize=auto;orthogonalLoop=1;plain-blue;endArrow=none;endFill=0;strokeWidth=2;strokeColor=#000000;startArrow=none;dashed=1;" parent="1" source="YvMvGw8tSOt4RGlKbDvN-15" edge="1">
          <mxGeometry x="-117.38" y="567" as="geometry">
            <mxPoint x="1080" y="570" as="targetPoint" />
            <mxPoint x="100" y="571" as="sourcePoint" />
            <Array as="points">
              <mxPoint x="1042" y="570" />
            </Array>
          </mxGeometry>
        </mxCell>
        <mxCell id="17730NkYTiJZY0oufSv_-27" value="DEV personal env" style="text;html=1;strokeColor=none;fillColor=none;align=center;verticalAlign=middle;whiteSpace=wrap;overflow=hidden;fontSize=14;fontStyle=0;fontColor=#009900;" parent="1" vertex="1">
          <mxGeometry x="33.81" y="571" width="66.19" height="59" as="geometry" />
        </mxCell>
        <mxCell id="17730NkYTiJZY0oufSv_-28" value="" style="edgeStyle=orthogonalEdgeStyle;rounded=0;html=1;jettySize=auto;orthogonalLoop=1;plain-blue;endArrow=none;endFill=0;strokeWidth=2;strokeColor=#000000;startArrow=none;dashed=1;" parent="1" edge="1">
          <mxGeometry x="-105.81" y="664" as="geometry">
            <mxPoint x="1091.57" y="667" as="targetPoint" />
            <mxPoint x="799" y="667" as="sourcePoint" />
            <Array as="points">
              <mxPoint x="1053.57" y="667" />
            </Array>
          </mxGeometry>
        </mxCell>
        <mxCell id="17730NkYTiJZY0oufSv_-30" value="" style="edgeStyle=orthogonalEdgeStyle;rounded=0;html=1;jettySize=auto;orthogonalLoop=1;plain-blue;endArrow=none;endFill=0;strokeWidth=2;strokeColor=#000000;startArrow=none;dashed=1;" parent="1" target="9hBKPDzoitwpIBdzFDQ7-30" edge="1">
          <mxGeometry x="-117.38" y="567" as="geometry">
            <mxPoint x="1080" y="570" as="targetPoint" />
            <mxPoint x="100" y="571" as="sourcePoint" />
            <Array as="points">
              <mxPoint x="320" y="571" />
              <mxPoint x="320" y="571" />
            </Array>
          </mxGeometry>
        </mxCell>
        <mxCell id="9hBKPDzoitwpIBdzFDQ7-30" value="" style="verticalLabelPosition=bottom;verticalAlign=top;html=1;strokeWidth=4;shape=mxgraph.flowchart.on-page_reference;strokeColor=#82b366;fillColor=#d5e8d4;gradientColor=#97d077;" parent="1" vertex="1">
          <mxGeometry x="392" y="555" width="30" height="30" as="geometry" />
        </mxCell>
        <mxCell id="17730NkYTiJZY0oufSv_-31" value="" style="edgeStyle=orthogonalEdgeStyle;rounded=0;html=1;jettySize=auto;orthogonalLoop=1;plain-blue;endArrow=none;endFill=0;strokeWidth=4;strokeColor=#000000;startArrow=none;" parent="1" source="9hBKPDzoitwpIBdzFDQ7-30" target="YvMvGw8tSOt4RGlKbDvN-15" edge="1">
          <mxGeometry x="-117.38" y="567" as="geometry">
            <mxPoint x="1080" y="570" as="targetPoint" />
            <mxPoint x="422" y="570" as="sourcePoint" />
            <Array as="points" />
          </mxGeometry>
        </mxCell>
        <mxCell id="YvMvGw8tSOt4RGlKbDvN-15" value="" style="verticalLabelPosition=bottom;verticalAlign=top;html=1;strokeWidth=4;shape=mxgraph.flowchart.on-page_reference;gradientColor=#97d077;strokeColor=#82b366;fillColor=#d5e8d4;" parent="1" vertex="1">
          <mxGeometry x="456" y="555" width="30" height="30" as="geometry" />
        </mxCell>
        <mxCell id="17730NkYTiJZY0oufSv_-34" value="" style="edgeStyle=orthogonalEdgeStyle;rounded=0;html=1;jettySize=auto;orthogonalLoop=1;plain-blue;endArrow=none;endFill=0;strokeWidth=2;strokeColor=#000000;startArrow=none;dashed=1;" parent="1" source="17730NkYTiJZY0oufSv_-23" target="17730NkYTiJZY0oufSv_-32" edge="1">
          <mxGeometry x="-109.38" y="475" as="geometry">
            <mxPoint x="1080" y="478" as="targetPoint" />
            <mxPoint x="430" y="478" as="sourcePoint" />
            <Array as="points" />
          </mxGeometry>
        </mxCell>
        <mxCell id="17730NkYTiJZY0oufSv_-32" value="" style="verticalLabelPosition=bottom;verticalAlign=top;html=1;strokeWidth=4;shape=mxgraph.flowchart.on-page_reference;fillColor=#e1d5e7;strokeColor=#9673a6;" parent="1" vertex="1">
          <mxGeometry x="535" y="466" width="30" height="30" as="geometry" />
        </mxCell>
        <mxCell id="17730NkYTiJZY0oufSv_-35" value="" style="edgeStyle=orthogonalEdgeStyle;curved=1;rounded=0;orthogonalLoop=1;jettySize=auto;html=1;endArrow=none;endFill=0;strokeWidth=4;fontFamily=Courier New;fontSize=16;startArrow=none;" parent="1" edge="1">
          <mxGeometry relative="1" as="geometry">
            <mxPoint x="535" y="479.99" as="targetPoint" />
            <mxPoint x="490" y="570" as="sourcePoint" />
            <Array as="points">
              <mxPoint x="490" y="570" />
              <mxPoint x="505" y="570" />
              <mxPoint x="505" y="480" />
            </Array>
          </mxGeometry>
        </mxCell>
        <mxCell id="17730NkYTiJZY0oufSv_-39" value="" style="edgeStyle=orthogonalEdgeStyle;rounded=0;html=1;jettySize=auto;orthogonalLoop=1;plain-blue;endArrow=none;endFill=0;strokeWidth=2;strokeColor=#000000;startArrow=none;dashed=1;" parent="1" target="17730NkYTiJZY0oufSv_-36" edge="1">
          <mxGeometry x="-108.19" y="376" as="geometry">
            <mxPoint x="1089.19" y="379" as="targetPoint" />
            <mxPoint x="109.19000000000005" y="380" as="sourcePoint" />
            <Array as="points" />
          </mxGeometry>
        </mxCell>
        <mxCell id="17730NkYTiJZY0oufSv_-36" value="" style="verticalLabelPosition=bottom;verticalAlign=top;html=1;strokeWidth=4;shape=mxgraph.flowchart.on-page_reference;fillColor=#fff2cc;strokeColor=#d6b656;" parent="1" vertex="1">
          <mxGeometry x="707" y="365" width="30" height="30" as="geometry" />
        </mxCell>
        <mxCell id="17730NkYTiJZY0oufSv_-70" value="" style="edgeStyle=orthogonalEdgeStyle;rounded=0;orthogonalLoop=1;jettySize=auto;html=1;strokeWidth=4;endArrow=none;endFill=0;" parent="1" source="17730NkYTiJZY0oufSv_-41" target="17730NkYTiJZY0oufSv_-64" edge="1">
          <mxGeometry relative="1" as="geometry" />
        </mxCell>
        <mxCell id="17730NkYTiJZY0oufSv_-41" value="" style="verticalLabelPosition=bottom;verticalAlign=top;html=1;strokeWidth=4;shape=mxgraph.flowchart.on-page_reference;fillColor=#e1d5e7;strokeColor=#9673a6;" parent="1" vertex="1">
          <mxGeometry x="776" y="465" width="30" height="30" as="geometry" />
        </mxCell>
        <mxCell id="17730NkYTiJZY0oufSv_-45" value="" style="edgeStyle=orthogonalEdgeStyle;curved=1;rounded=0;orthogonalLoop=1;jettySize=auto;html=1;endArrow=none;endFill=0;strokeWidth=4;fontFamily=Courier New;fontSize=16;" parent="1" edge="1">
          <mxGeometry relative="1" as="geometry">
            <mxPoint x="547" y="290" as="targetPoint" />
            <mxPoint x="512" y="200" as="sourcePoint" />
            <Array as="points">
              <mxPoint x="527" y="200" />
              <mxPoint x="527" y="289" />
            </Array>
          </mxGeometry>
        </mxCell>
        <mxCell id="ck4O1efFFyVbqovqOwfO-25" value="" style="verticalLabelPosition=bottom;verticalAlign=top;html=1;strokeWidth=4;shape=mxgraph.flowchart.on-page_reference;plain-blue;gradientColor=#EA6B66;strokeColor=#B85450;fillColor=#F8CECC;" parent="1" vertex="1">
          <mxGeometry x="542.6299999999999" y="270" width="30" height="30" as="geometry" />
        </mxCell>
        <mxCell id="17730NkYTiJZY0oufSv_-46" value="" style="edgeStyle=orthogonalEdgeStyle;curved=1;rounded=0;orthogonalLoop=1;jettySize=auto;html=1;endArrow=none;endFill=0;strokeWidth=4;fontFamily=Courier New;fontSize=16;exitX=1;exitY=0.5;exitDx=0;exitDy=0;exitPerimeter=0;entryX=0;entryY=0.5;entryDx=0;entryDy=0;entryPerimeter=0;" parent="1" target="17730NkYTiJZY0oufSv_-41" edge="1">
          <mxGeometry relative="1" as="geometry">
            <mxPoint x="778" y="470" as="targetPoint" />
            <mxPoint x="738" y="381" as="sourcePoint" />
            <Array as="points">
              <mxPoint x="758" y="381" />
              <mxPoint x="758" y="480" />
            </Array>
          </mxGeometry>
        </mxCell>
        <mxCell id="17730NkYTiJZY0oufSv_-47" value="" style="edgeStyle=orthogonalEdgeStyle;curved=1;rounded=0;orthogonalLoop=1;jettySize=auto;html=1;endArrow=none;endFill=0;strokeWidth=4;fontFamily=Courier New;fontSize=16;startArrow=none;" parent="1" edge="1">
          <mxGeometry relative="1" as="geometry">
            <mxPoint x="807" y="200" as="targetPoint" />
            <mxPoint x="741" y="380" as="sourcePoint" />
            <Array as="points">
              <mxPoint x="775" y="380" />
              <mxPoint x="775" y="200" />
            </Array>
          </mxGeometry>
        </mxCell>
        <mxCell id="17730NkYTiJZY0oufSv_-51" value="" style="edgeStyle=orthogonalEdgeStyle;curved=1;rounded=0;orthogonalLoop=1;jettySize=auto;html=1;endArrow=none;endFill=0;strokeWidth=4;fontFamily=Courier New;fontSize=16;" parent="1" target="17730NkYTiJZY0oufSv_-48" edge="1">
          <mxGeometry relative="1" as="geometry">
            <mxPoint x="1080" y="200" as="sourcePoint" />
            <mxPoint x="630.3699999999999" y="199" as="targetPoint" />
          </mxGeometry>
        </mxCell>
        <mxCell id="17730NkYTiJZY0oufSv_-48" value="" style="verticalLabelPosition=bottom;verticalAlign=top;html=1;strokeWidth=4;shape=mxgraph.flowchart.on-page_reference;strokeColor=#36393d;fillColor=#cce5ff;" parent="1" vertex="1">
          <mxGeometry x="812.9999999999999" y="184" width="30" height="30" as="geometry" />
        </mxCell>
        <mxCell id="17730NkYTiJZY0oufSv_-56" style="edgeStyle=orthogonalEdgeStyle;curved=1;rounded=0;html=1;endArrow=none;endFill=0;jettySize=auto;orthogonalLoop=1;strokeWidth=4;fontSize=15;" parent="1" edge="1">
          <mxGeometry relative="1" as="geometry">
            <mxPoint x="276" y="481" as="targetPoint" />
            <Array as="points">
              <mxPoint x="306" y="665" />
              <mxPoint x="306" y="481" />
            </Array>
            <mxPoint x="356" y="665" as="sourcePoint" />
          </mxGeometry>
        </mxCell>
        <mxCell id="ZiaGpqQXMz9nbaePvjVG-7" value="" style="edgeStyle=orthogonalEdgeStyle;rounded=0;orthogonalLoop=1;jettySize=auto;html=1;strokeWidth=4;endArrow=none;endFill=0;" edge="1" parent="1" source="17730NkYTiJZY0oufSv_-57" target="17730NkYTiJZY0oufSv_-60">
          <mxGeometry relative="1" as="geometry">
            <Array as="points">
              <mxPoint x="520" y="665" />
              <mxPoint x="520" y="665" />
            </Array>
          </mxGeometry>
        </mxCell>
        <mxCell id="17730NkYTiJZY0oufSv_-57" value="" style="verticalLabelPosition=bottom;verticalAlign=top;html=1;strokeWidth=4;shape=mxgraph.flowchart.on-page_reference;strokeColor=#82b366;fillColor=#d5e8d4;gradientColor=#97d077;" parent="1" vertex="1">
          <mxGeometry x="440" y="650" width="30" height="30" as="geometry" />
        </mxCell>
        <mxCell id="17730NkYTiJZY0oufSv_-60" value="" style="verticalLabelPosition=bottom;verticalAlign=top;html=1;strokeWidth=4;shape=mxgraph.flowchart.on-page_reference;strokeColor=#82b366;fillColor=#d5e8d4;gradientColor=#97d077;" parent="1" vertex="1">
          <mxGeometry x="542.63" y="650" width="30" height="30" as="geometry" />
        </mxCell>
        <mxCell id="17730NkYTiJZY0oufSv_-63" value="" style="edgeStyle=orthogonalEdgeStyle;rounded=0;html=1;jettySize=auto;orthogonalLoop=1;plain-blue;endArrow=none;endFill=0;strokeWidth=4;strokeColor=#000000;startArrow=none;" parent="1" edge="1">
          <mxGeometry x="-105.81" y="666" as="geometry">
            <mxPoint x="769" y="666" as="targetPoint" />
            <mxPoint x="572.6300000000001" y="666" as="sourcePoint" />
            <Array as="points" />
          </mxGeometry>
        </mxCell>
        <mxCell id="17730NkYTiJZY0oufSv_-64" value="" style="verticalLabelPosition=bottom;verticalAlign=top;html=1;strokeWidth=4;shape=mxgraph.flowchart.on-page_reference;fillColor=#e1d5e7;strokeColor=#9673a6;" parent="1" vertex="1">
          <mxGeometry x="853" y="465" width="30" height="30" as="geometry" />
        </mxCell>
        <mxCell id="17730NkYTiJZY0oufSv_-66" value="" style="edgeStyle=orthogonalEdgeStyle;curved=1;rounded=0;orthogonalLoop=1;jettySize=auto;html=1;endArrow=none;endFill=0;strokeWidth=4;fontFamily=Courier New;fontSize=16;startArrow=none;" parent="1" edge="1" source="17730NkYTiJZY0oufSv_-62">
          <mxGeometry relative="1" as="geometry">
            <mxPoint x="851" y="480" as="targetPoint" />
            <mxPoint x="801" y="670" as="sourcePoint" />
            <Array as="points">
              <mxPoint x="811" y="480" />
            </Array>
          </mxGeometry>
        </mxCell>
        <mxCell id="17730NkYTiJZY0oufSv_-72" value="" style="verticalLabelPosition=bottom;verticalAlign=top;html=1;strokeWidth=4;shape=mxgraph.flowchart.on-page_reference;fillColor=#e1d5e7;strokeColor=#9673a6;" parent="1" vertex="1">
          <mxGeometry x="639" y="464" width="30" height="30" as="geometry" />
        </mxCell>
        <mxCell id="17730NkYTiJZY0oufSv_-73" style="edgeStyle=orthogonalEdgeStyle;curved=1;rounded=0;html=1;endArrow=none;endFill=0;jettySize=auto;orthogonalLoop=1;strokeWidth=4;fontSize=15;" parent="1" edge="1">
          <mxGeometry relative="1" as="geometry">
            <mxPoint x="572.63" y="290.5" as="targetPoint" />
            <Array as="points">
              <mxPoint x="605" y="480" />
              <mxPoint x="605" y="291" />
            </Array>
            <mxPoint x="640" y="480" as="sourcePoint" />
          </mxGeometry>
        </mxCell>
        <mxCell id="17730NkYTiJZY0oufSv_-75" value="22.2" style="text;html=1;strokeColor=none;fillColor=none;align=center;verticalAlign=middle;whiteSpace=wrap;overflow=hidden;fontSize=14;" parent="1" vertex="1">
          <mxGeometry x="836" y="161" width="52.63" height="20" as="geometry" />
        </mxCell>
        <mxCell id="17730NkYTiJZY0oufSv_-77" value="22.2" style="text;html=1;strokeColor=none;fillColor=none;align=center;verticalAlign=middle;whiteSpace=wrap;overflow=hidden;fontSize=14;" parent="1" vertex="1">
          <mxGeometry x="720" y="340" width="52.63" height="20" as="geometry" />
        </mxCell>
        <mxCell id="17730NkYTiJZY0oufSv_-78" value="22.1.0.1" style="text;html=1;strokeColor=none;fillColor=none;align=center;verticalAlign=middle;whiteSpace=wrap;overflow=hidden;fontSize=14;" parent="1" vertex="1">
          <mxGeometry x="403.37" y="530" width="76.63" height="20" as="geometry" />
        </mxCell>
        <mxCell id="17730NkYTiJZY0oufSv_-79" value="22.1.0.2" style="text;html=1;strokeColor=none;fillColor=none;align=center;verticalAlign=middle;whiteSpace=wrap;overflow=hidden;fontSize=14;" parent="1" vertex="1">
          <mxGeometry x="458.37" y="630" width="76.63" height="20" as="geometry" />
        </mxCell>
        <mxCell id="17730NkYTiJZY0oufSv_-81" style="edgeStyle=orthogonalEdgeStyle;curved=1;rounded=0;html=1;endArrow=none;endFill=0;jettySize=auto;orthogonalLoop=1;strokeWidth=4;fontSize=15;" parent="1" edge="1">
          <mxGeometry relative="1" as="geometry">
            <mxPoint x="925" y="379" as="targetPoint" />
            <Array as="points">
              <mxPoint x="905" y="479" />
              <mxPoint x="905" y="379" />
            </Array>
            <mxPoint x="884" y="479" as="sourcePoint" />
          </mxGeometry>
        </mxCell>
        <mxCell id="17730NkYTiJZY0oufSv_-83" value="" style="verticalLabelPosition=bottom;verticalAlign=top;html=1;strokeWidth=4;shape=mxgraph.flowchart.on-page_reference;fillColor=#fff2cc;strokeColor=#d6b656;" parent="1" vertex="1">
          <mxGeometry x="922" y="364" width="30" height="30" as="geometry" />
        </mxCell>
        <mxCell id="17730NkYTiJZY0oufSv_-84" value="" style="edgeStyle=orthogonalEdgeStyle;curved=1;rounded=0;orthogonalLoop=1;jettySize=auto;html=1;endArrow=none;endFill=0;strokeWidth=4;fontFamily=Courier New;fontSize=16;startArrow=none;" parent="1" edge="1">
          <mxGeometry relative="1" as="geometry">
            <mxPoint x="1021" y="199" as="targetPoint" />
            <mxPoint x="955" y="379" as="sourcePoint" />
            <Array as="points">
              <mxPoint x="989" y="379" />
              <mxPoint x="989" y="199" />
            </Array>
          </mxGeometry>
        </mxCell>
        <mxCell id="17730NkYTiJZY0oufSv_-85" value="" style="verticalLabelPosition=bottom;verticalAlign=top;html=1;strokeWidth=4;shape=mxgraph.flowchart.on-page_reference;strokeColor=#36393d;fillColor=#cce5ff;" parent="1" vertex="1">
          <mxGeometry x="1027" y="183" width="30" height="30" as="geometry" />
        </mxCell>
        <mxCell id="17730NkYTiJZY0oufSv_-87" value="22.3" style="text;html=1;strokeColor=none;fillColor=none;align=center;verticalAlign=middle;whiteSpace=wrap;overflow=hidden;fontSize=14;" parent="1" vertex="1">
          <mxGeometry x="1040" y="161" width="52.63" height="20" as="geometry" />
        </mxCell>
        <mxCell id="ZiaGpqQXMz9nbaePvjVG-1" value="" style="edgeStyle=orthogonalEdgeStyle;rounded=0;html=1;jettySize=auto;orthogonalLoop=1;plain-blue;endArrow=none;endFill=0;strokeWidth=2;strokeColor=#000000;startArrow=none;dashed=1;" edge="1" parent="1" target="17730NkYTiJZY0oufSv_-52">
          <mxGeometry x="-105.81" y="661" as="geometry">
            <mxPoint x="357" y="665" as="targetPoint" />
            <mxPoint x="111.56999999999994" y="665" as="sourcePoint" />
            <Array as="points" />
          </mxGeometry>
        </mxCell>
        <mxCell id="ZiaGpqQXMz9nbaePvjVG-6" value="" style="edgeStyle=orthogonalEdgeStyle;rounded=0;orthogonalLoop=1;jettySize=auto;html=1;strokeWidth=4;endArrow=none;endFill=0;" edge="1" parent="1" source="17730NkYTiJZY0oufSv_-52" target="17730NkYTiJZY0oufSv_-57">
          <mxGeometry relative="1" as="geometry" />
        </mxCell>
        <mxCell id="17730NkYTiJZY0oufSv_-52" value="" style="verticalLabelPosition=bottom;verticalAlign=top;html=1;strokeWidth=4;shape=mxgraph.flowchart.on-page_reference;strokeColor=#82b366;fillColor=#d5e8d4;gradientColor=#97d077;" parent="1" vertex="1">
          <mxGeometry x="357" y="650" width="30" height="30" as="geometry" />
        </mxCell>
        <mxCell id="ZiaGpqQXMz9nbaePvjVG-2" value="" style="edgeStyle=orthogonalEdgeStyle;curved=1;rounded=0;orthogonalLoop=1;jettySize=auto;html=1;endArrow=none;endFill=0;strokeWidth=4;fontFamily=Courier New;fontSize=16;startArrow=none;" edge="1" parent="1" target="17730NkYTiJZY0oufSv_-62">
          <mxGeometry relative="1" as="geometry">
            <mxPoint x="851" y="480" as="targetPoint" />
            <mxPoint x="801" y="670" as="sourcePoint" />
            <Array as="points">
              <mxPoint x="777" y="670" />
              <mxPoint x="811" y="670" />
            </Array>
          </mxGeometry>
        </mxCell>
        <mxCell id="17730NkYTiJZY0oufSv_-62" value="" style="verticalLabelPosition=bottom;verticalAlign=top;html=1;strokeWidth=4;shape=mxgraph.flowchart.on-page_reference;strokeColor=#82b366;fillColor=#d5e8d4;gradientColor=#97d077;" parent="1" vertex="1">
          <mxGeometry x="769" y="652" width="30" height="30" as="geometry" />
        </mxCell>
        <mxCell id="ZiaGpqQXMz9nbaePvjVG-10" value="22.3" style="text;html=1;strokeColor=none;fillColor=none;align=center;verticalAlign=middle;whiteSpace=wrap;overflow=hidden;fontSize=14;" vertex="1" parent="1">
          <mxGeometry x="930" y="340" width="52.63" height="20" as="geometry" />
        </mxCell>
      </root>
    </mxGraphModel>
  </diagram>
</mxfile>
